<svg xmlns="http://www.w3.org/2000/svg" xmlns:xlink="http://www.w3.org/1999/xlink" width="2000" zoomAndPan="magnify" viewBox="0 0 1500 1499.999933" height="2000" preserveAspectRatio="xMidYMid meet"><defs><g></g><clipPath id="091ec4c92a"><path d="M 323.804688 549.117188 L 1176.554688 549.117188 L 1176.554688 1470.867188 L 323.804688 1470.867188 Z M 323.804688 549.117188 " clip-rule="nonzero"></path></clipPath><clipPath id="3b88bab102"><path d="M 23.113281 215.832031 L 484.203125 215.832031 L 484.203125 698 L 23.113281 698 Z M 23.113281 215.832031 " clip-rule="nonzero"></path></clipPath><clipPath id="67b600bda2"><path d="M 253.660156 215.832031 C 126.332031 215.832031 23.113281 323.644531 23.113281 456.644531 C 23.113281 589.640625 126.332031 697.457031 253.660156 697.457031 C 380.984375 697.457031 484.203125 589.640625 484.203125 456.644531 C 484.203125 323.644531 380.984375 215.832031 253.660156 215.832031 Z M 253.660156 215.832031 " clip-rule="nonzero"></path></clipPath><clipPath id="8b30703280"><path d="M 0.113281 0.832031 L 461.203125 0.832031 L 461.203125 482 L 0.113281 482 Z M 0.113281 0.832031 " clip-rule="nonzero"></path></clipPath><clipPath id="780fab47d9"><path d="M 230.660156 0.832031 C 103.332031 0.832031 0.113281 108.644531 0.113281 241.644531 C 0.113281 374.640625 103.332031 482.457031 230.660156 482.457031 C 357.984375 482.457031 461.203125 374.640625 461.203125 241.644531 C 461.203125 108.644531 357.984375 0.832031 230.660156 0.832031 Z M 230.660156 0.832031 " clip-rule="nonzero"></path></clipPath><clipPath id="d80466c13f"><rect x="0" width="462" y="0" height="483"></rect></clipPath><clipPath id="f901432766"><path d="M 23.117188 215.832031 L 484.199219 215.832031 L 484.199219 697.332031 L 23.117188 697.332031 Z M 23.117188 215.832031 " clip-rule="nonzero"></path></clipPath><clipPath id="d544c43545"><path d="M 253.65625 215.832031 C 126.332031 215.832031 23.117188 323.644531 23.117188 456.640625 C 23.117188 589.632812 126.332031 697.449219 253.65625 697.449219 C 380.980469 697.449219 484.199219 589.632812 484.199219 456.640625 C 484.199219 323.644531 380.980469 215.832031 253.65625 215.832031 Z M 253.65625 215.832031 " clip-rule="nonzero"></path></clipPath><clipPath id="f8edbee81b"><path d="M 519.453125 34.019531 L 980.546875 34.019531 L 980.546875 516 L 519.453125 516 Z M 519.453125 34.019531 " clip-rule="nonzero"></path></clipPath><clipPath id="fd5a07673c"><path d="M 750 34.019531 C 622.671875 34.019531 519.453125 141.835938 519.453125 274.832031 C 519.453125 407.828125 622.671875 515.644531 750 515.644531 C 877.328125 515.644531 980.546875 407.828125 980.546875 274.832031 C 980.546875 141.835938 877.328125 34.019531 750 34.019531 Z M 750 34.019531 " clip-rule="nonzero"></path></clipPath><clipPath id="f1929f693f"><path d="M 0.453125 0.0195312 L 461.546875 0.0195312 L 461.546875 481 L 0.453125 481 Z M 0.453125 0.0195312 " clip-rule="nonzero"></path></clipPath><clipPath id="2b6564e6e2"><path d="M 231 0.0195312 C 103.671875 0.0195312 0.453125 107.835938 0.453125 240.832031 C 0.453125 373.828125 103.671875 481.644531 231 481.644531 C 358.328125 481.644531 461.546875 373.828125 461.546875 240.832031 C 461.546875 107.835938 358.328125 0.0195312 231 0.0195312 Z M 231 0.0195312 " clip-rule="nonzero"></path></clipPath><clipPath id="e4649125b8"><rect x="0" width="462" y="0" height="482"></rect></clipPath><clipPath id="c85ecfc03f"><path d="M 519.457031 34.019531 L 980.539062 34.019531 L 980.539062 515.519531 L 519.457031 515.519531 Z M 519.457031 34.019531 " clip-rule="nonzero"></path></clipPath><clipPath id="55c88ecef8"><path d="M 749.996094 34.019531 C 622.671875 34.019531 519.457031 141.832031 519.457031 274.828125 C 519.457031 407.824219 622.671875 515.636719 749.996094 515.636719 C 877.320312 515.636719 980.539062 407.824219 980.539062 274.828125 C 980.539062 141.832031 877.320312 34.019531 749.996094 34.019531 Z M 749.996094 34.019531 " clip-rule="nonzero"></path></clipPath><clipPath id="b58c0a2453"><path d="M 1015.796875 215.832031 L 1476.886719 215.832031 L 1476.886719 698 L 1015.796875 698 Z M 1015.796875 215.832031 " clip-rule="nonzero"></path></clipPath><clipPath id="8244a868be"><path d="M 1246.339844 215.832031 C 1119.015625 215.832031 1015.796875 323.644531 1015.796875 456.644531 C 1015.796875 589.640625 1119.015625 697.457031 1246.339844 697.457031 C 1373.667969 697.457031 1476.886719 589.640625 1476.886719 456.644531 C 1476.886719 323.644531 1373.667969 215.832031 1246.339844 215.832031 Z M 1246.339844 215.832031 " clip-rule="nonzero"></path></clipPath><clipPath id="37adcf7384"><path d="M 0.796875 0.832031 L 461.886719 0.832031 L 461.886719 482 L 0.796875 482 Z M 0.796875 0.832031 " clip-rule="nonzero"></path></clipPath><clipPath id="f1f2944e77"><path d="M 231.339844 0.832031 C 104.015625 0.832031 0.796875 108.644531 0.796875 241.644531 C 0.796875 374.640625 104.015625 482.457031 231.339844 482.457031 C 358.667969 482.457031 461.886719 374.640625 461.886719 241.644531 C 461.886719 108.644531 358.667969 0.832031 231.339844 0.832031 Z M 231.339844 0.832031 " clip-rule="nonzero"></path></clipPath><clipPath id="1e03bfa92a"><rect x="0" width="462" y="0" height="483"></rect></clipPath><clipPath id="fe554bed5b"><path d="M 1015.796875 215.832031 L 1476.878906 215.832031 L 1476.878906 697.332031 L 1015.796875 697.332031 Z M 1015.796875 215.832031 " clip-rule="nonzero"></path></clipPath><clipPath id="24a7cd33a3"><path d="M 1246.339844 215.832031 C 1119.011719 215.832031 1015.796875 323.644531 1015.796875 456.640625 C 1015.796875 589.632812 1119.011719 697.449219 1246.339844 697.449219 C 1373.664062 697.449219 1476.878906 589.632812 1476.878906 456.640625 C 1476.878906 323.644531 1373.664062 215.832031 1246.339844 215.832031 Z M 1246.339844 215.832031 " clip-rule="nonzero"></path></clipPath></defs><g clip-path="url(#091ec4c92a)"><path fill="#000000" d="M 372.347656 1400.148438 L 372.347656 1256.476562 C 372.347656 1251.421875 374.410156 1246.835938 377.726562 1243.515625 C 381.046875 1240.199219 385.636719 1238.136719 390.691406 1238.136719 L 403.335938 1238.136719 L 403.335938 834.753906 L 367.640625 855.015625 C 362.589844 857.882812 356.175781 856.113281 353.308594 851.0625 L 325.101562 801.390625 C 322.238281 796.339844 324.007812 789.925781 329.058594 787.058594 L 744.894531 551.027344 C 748.289062 549.101562 752.300781 549.269531 755.4375 551.121094 L 1171.109375 787.0625 C 1176.160156 789.929688 1177.929688 796.34375 1175.0625 801.394531 L 1146.859375 851.066406 C 1143.992188 856.117188 1137.574219 857.886719 1132.527344 855.019531 L 1096.816406 834.75 L 1096.816406 1400.152344 L 1157.039062 1400.152344 C 1162.863281 1400.152344 1167.582031 1404.871094 1167.582031 1410.691406 L 1167.582031 1459.789062 C 1167.582031 1465.613281 1162.863281 1470.332031 1157.039062 1470.332031 L 343.128906 1470.332031 C 337.304688 1470.332031 332.585938 1465.613281 332.585938 1459.789062 L 332.585938 1410.691406 C 332.585938 1404.871094 337.304688 1400.152344 343.128906 1400.152344 L 372.347656 1400.152344 Z M 890.742188 1086.664062 L 890.742188 1400.152344 L 1020.570312 1400.152344 L 1020.570312 1017.96875 L 477.613281 1017.96875 L 477.613281 1238.136719 L 538.117188 1238.136719 L 538.117188 1094.464844 C 538.117188 1089.410156 540.179688 1084.820312 543.5 1081.503906 C 546.816406 1078.183594 551.40625 1076.125 556.460938 1076.125 L 714.429688 1076.125 C 715.605469 1076.125 716.734375 1076.316406 717.785156 1076.667969 C 719.210938 1076.3125 720.699219 1076.125 722.230469 1076.125 L 880.199219 1076.125 C 886.023438 1076.125 890.742188 1080.84375 890.742188 1086.664062 Z M 890.742188 1086.664062 " fill-opacity="1" fill-rule="evenodd"></path></g><path fill="#ab7742" d="M 869.65625 1400.148438 L 869.65625 1259.222656 L 825.945312 1259.222656 L 825.945312 1302.628906 C 825.945312 1308.449219 821.222656 1313.171875 815.402344 1313.171875 L 776.910156 1313.171875 C 771.085938 1313.171875 766.367188 1308.449219 766.367188 1302.628906 L 766.367188 1259.222656 L 724.976562 1259.222656 L 724.976562 1400.148438 Z M 754.195312 1386.269531 C 748.371094 1386.269531 743.652344 1381.550781 743.652344 1375.726562 C 743.652344 1369.90625 748.371094 1365.183594 754.195312 1365.183594 L 778.953125 1365.183594 C 784.777344 1365.183594 789.496094 1369.90625 789.496094 1375.726562 C 789.496094 1381.550781 784.777344 1386.269531 778.953125 1386.269531 Z M 754.195312 1386.269531 " fill-opacity="1" fill-rule="evenodd"></path><path fill="#ab7742" d="M 869.65625 1238.136719 L 869.65625 1097.207031 L 825.945312 1097.207031 L 825.945312 1140.613281 C 825.945312 1146.4375 821.222656 1151.15625 815.402344 1151.15625 L 776.910156 1151.15625 C 771.085938 1151.15625 766.367188 1146.4375 766.367188 1140.613281 L 766.367188 1097.207031 L 724.976562 1097.207031 L 724.976562 1238.136719 Z M 754.195312 1224.253906 C 748.371094 1224.253906 743.652344 1219.535156 743.652344 1213.714844 C 743.652344 1207.890625 748.371094 1203.171875 754.195312 1203.171875 L 778.953125 1203.171875 C 784.777344 1203.171875 789.496094 1207.890625 789.496094 1213.714844 C 789.496094 1219.535156 784.777344 1224.253906 778.953125 1224.253906 Z M 754.195312 1224.253906 " fill-opacity="1" fill-rule="evenodd"></path><path fill="#c9935d" d="M 869.65625 1210.734375 L 869.65625 1097.207031 L 825.945312 1097.207031 L 825.945312 1140.613281 C 825.945312 1146.4375 821.222656 1151.15625 815.402344 1151.15625 L 776.910156 1151.15625 C 771.085938 1151.15625 766.367188 1146.4375 766.367188 1140.613281 L 766.367188 1097.207031 L 724.976562 1097.207031 L 724.976562 1154.039062 C 767.789062 1182.441406 816.847656 1202.171875 869.65625 1210.734375 Z M 869.65625 1210.734375 " fill-opacity="1" fill-rule="evenodd"></path><path fill="#fad178" d="M 787.453125 1097.207031 L 804.855469 1097.207031 L 804.855469 1130.074219 L 787.453125 1130.074219 Z M 787.453125 1097.207031 " fill-opacity="1" fill-rule="nonzero"></path><path fill="#ab7742" d="M 703.886719 1238.136719 L 703.886719 1097.207031 L 660.175781 1097.207031 L 660.175781 1140.613281 C 660.175781 1146.4375 655.453125 1151.15625 649.632812 1151.15625 L 611.140625 1151.15625 C 605.316406 1151.15625 600.597656 1146.4375 600.597656 1140.613281 L 600.597656 1097.207031 L 559.207031 1097.207031 L 559.207031 1238.136719 Z M 588.421875 1224.253906 C 582.601562 1224.253906 577.878906 1219.535156 577.878906 1213.714844 C 577.878906 1207.890625 582.601562 1203.171875 588.421875 1203.171875 L 613.183594 1203.171875 C 619.003906 1203.171875 623.726562 1207.890625 623.726562 1213.714844 C 623.726562 1219.535156 619.003906 1224.253906 613.183594 1224.253906 Z M 588.421875 1224.253906 " fill-opacity="1" fill-rule="evenodd"></path><path fill="#c9935d" d="M 703.886719 1138.960938 L 703.886719 1097.207031 L 660.175781 1097.207031 L 660.175781 1099.472656 C 673.667969 1113.757812 688.289062 1126.964844 703.886719 1138.960938 Z M 703.886719 1138.960938 " fill-opacity="1" fill-rule="evenodd"></path><path fill="#fad178" d="M 621.683594 1097.207031 L 639.085938 1097.207031 L 639.085938 1130.074219 L 621.683594 1130.074219 Z M 621.683594 1097.207031 " fill-opacity="1" fill-rule="nonzero"></path><path fill="#fad178" d="M 787.453125 1259.222656 L 804.855469 1259.222656 L 804.855469 1292.085938 L 787.453125 1292.085938 Z M 787.453125 1259.222656 " fill-opacity="1" fill-rule="nonzero"></path><path fill="#ab7742" d="M 703.886719 1400.148438 L 703.886719 1259.222656 L 660.175781 1259.222656 L 660.175781 1302.628906 C 660.175781 1308.449219 655.453125 1313.171875 649.632812 1313.171875 L 611.140625 1313.171875 C 605.316406 1313.171875 600.597656 1308.449219 600.597656 1302.628906 L 600.597656 1259.222656 L 559.207031 1259.222656 L 559.207031 1400.148438 Z M 588.421875 1386.269531 C 582.601562 1386.269531 577.878906 1381.550781 577.878906 1375.726562 C 577.878906 1369.90625 582.601562 1365.183594 588.421875 1365.183594 L 613.183594 1365.183594 C 619.003906 1365.183594 623.726562 1369.90625 623.726562 1375.726562 C 623.726562 1381.550781 619.003906 1386.269531 613.183594 1386.269531 Z M 588.421875 1386.269531 " fill-opacity="1" fill-rule="evenodd"></path><path fill="#fad178" d="M 621.683594 1259.222656 L 639.085938 1259.222656 L 639.085938 1292.085938 L 621.683594 1292.085938 Z M 621.683594 1259.222656 " fill-opacity="1" fill-rule="nonzero"></path><path fill="#ab7742" d="M 538.117188 1400.148438 L 538.117188 1259.222656 L 494.40625 1259.222656 L 494.40625 1302.628906 C 494.40625 1308.449219 489.683594 1313.171875 483.863281 1313.171875 L 445.371094 1313.171875 C 439.546875 1313.171875 434.828125 1308.449219 434.828125 1302.628906 L 434.828125 1259.222656 L 393.4375 1259.222656 L 393.4375 1400.148438 L 538.121094 1400.148438 Z M 422.65625 1386.269531 C 416.832031 1386.269531 412.109375 1381.550781 412.109375 1375.726562 C 412.109375 1369.90625 416.832031 1365.183594 422.65625 1365.183594 L 447.414062 1365.183594 C 453.238281 1365.183594 457.957031 1369.90625 457.957031 1375.726562 C 457.957031 1381.550781 453.234375 1386.269531 447.414062 1386.269531 Z M 422.65625 1386.269531 " fill-opacity="1" fill-rule="evenodd"></path><path fill="#fad178" d="M 455.914062 1259.222656 L 473.316406 1259.222656 L 473.316406 1292.085938 L 455.914062 1292.085938 Z M 455.914062 1259.222656 " fill-opacity="1" fill-rule="evenodd"></path><path fill="#86b4e3" d="M 424.425781 1238.136719 L 456.523438 1238.136719 L 456.523438 902.894531 C 456.523438 897.074219 461.242188 892.351562 467.066406 892.351562 L 1031.113281 892.351562 C 1036.933594 892.351562 1041.65625 897.074219 1041.65625 902.894531 L 1041.65625 948.769531 C 1042.285156 950.121094 1042.640625 951.628906 1042.640625 953.21875 C 1042.640625 954.808594 1042.285156 956.3125 1041.65625 957.667969 L 1041.65625 1002.976562 C 1042.285156 1004.328125 1042.640625 1005.835938 1042.640625 1007.425781 C 1042.640625 1009.015625 1042.285156 1010.519531 1041.65625 1011.875 L 1041.65625 1400.148438 L 1075.726562 1400.148438 L 1075.726562 822.777344 L 750.082031 637.9375 L 424.425781 822.785156 Z M 750.082031 711.773438 C 767.890625 711.773438 784.015625 718.992188 795.6875 730.660156 C 807.359375 742.328125 814.578125 758.453125 814.578125 776.257812 C 814.578125 794.0625 807.359375 810.1875 795.6875 821.855469 C 784.015625 833.527344 767.890625 840.746094 750.082031 840.746094 C 732.273438 840.746094 716.148438 833.527344 704.476562 821.855469 C 692.804688 810.1875 685.585938 794.0625 685.585938 776.257812 C 685.585938 758.453125 692.808594 742.328125 704.476562 730.660156 C 716.148438 718.988281 732.273438 711.773438 750.082031 711.773438 Z M 750.082031 711.773438 " fill-opacity="1" fill-rule="evenodd"></path><path fill="#a1ccf7" d="M 562.152344 892.355469 L 1031.113281 892.355469 C 1036.933594 892.355469 1041.65625 897.074219 1041.65625 902.894531 L 1041.65625 1198.179688 C 1053.273438 1194.484375 1064.640625 1190.230469 1075.726562 1185.453125 L 1075.726562 822.777344 L 750.082031 637.9375 L 575.339844 737.125 C 564.859375 771.394531 559.207031 807.769531 559.207031 845.46875 C 559.207031 861.351562 560.210938 876.996094 562.152344 892.351562 Z M 750.082031 711.773438 C 767.890625 711.773438 784.015625 718.992188 795.6875 730.660156 C 807.359375 742.328125 814.578125 758.453125 814.578125 776.257812 C 814.578125 794.0625 807.359375 810.1875 795.6875 821.855469 C 784.015625 833.527344 767.890625 840.746094 750.082031 840.746094 C 732.273438 840.746094 716.148438 833.527344 704.476562 821.855469 C 692.804688 810.1875 685.585938 794.0625 685.585938 776.257812 C 685.585938 758.453125 692.808594 742.328125 704.476562 730.660156 C 716.148438 718.988281 732.273438 711.773438 750.082031 711.773438 Z M 750.082031 711.773438 " fill-opacity="1" fill-rule="evenodd"></path><path fill="#808080" d="M 353.675781 1421.234375 L 1146.496094 1421.234375 L 1146.496094 1449.246094 L 353.675781 1449.246094 Z M 353.675781 1421.234375 " fill-opacity="1" fill-rule="nonzero"></path><path fill="#d7e9ff" d="M 780.777344 745.570312 C 772.925781 737.71875 762.070312 732.859375 750.082031 732.859375 C 738.097656 732.859375 727.242188 737.71875 719.386719 745.570312 C 711.53125 753.421875 706.671875 764.277344 706.671875 776.261719 C 706.671875 788.25 711.53125 799.097656 719.386719 806.953125 C 727.242188 814.804688 738.09375 819.664062 750.082031 819.664062 C 762.074219 819.664062 772.925781 814.808594 780.777344 806.953125 C 788.632812 799.097656 793.492188 788.25 793.492188 776.261719 C 793.492188 764.277344 788.632812 753.425781 780.777344 745.570312 Z M 780.777344 745.570312 " fill-opacity="1" fill-rule="evenodd"></path><path fill="#d7e9ff" d="M 477.613281 963.761719 L 1020.570312 963.761719 L 1020.570312 996.882812 L 477.613281 996.882812 Z M 477.613281 963.761719 " fill-opacity="1" fill-rule="nonzero"></path><path fill="#f5faff" d="M 591.515625 996.882812 L 1020.570312 996.882812 L 1020.570312 963.761719 L 578.523438 963.761719 C 582.332031 975.054688 586.675781 986.105469 591.515625 996.882812 Z M 591.515625 996.882812 " fill-opacity="1" fill-rule="evenodd"></path><path fill="#d7e9ff" d="M 477.613281 913.4375 L 1020.570312 913.4375 L 1020.570312 942.675781 L 477.613281 942.675781 Z M 477.613281 913.4375 " fill-opacity="1" fill-rule="nonzero"></path><path fill="#f5faff" d="M 572.136719 942.675781 L 1020.570312 942.675781 L 1020.570312 913.4375 L 565.457031 913.4375 C 567.296875 923.328125 569.527344 933.078125 572.136719 942.675781 Z M 572.136719 942.675781 " fill-opacity="1" fill-rule="evenodd"></path><path fill="#3e82b3" d="M 1151.585938 800.15625 L 750.082031 572.253906 L 348.582031 800.15625 L 366.402344 831.542969 C 492.511719 759.964844 618.621094 688.382812 744.726562 616.800781 C 747.863281 614.949219 751.875 614.78125 755.269531 616.707031 C 881.433594 688.320312 1007.597656 759.929688 1133.757812 831.542969 L 1151.582031 800.15625 Z M 1151.585938 800.15625 " fill-opacity="1" fill-rule="evenodd"></path><path fill="#5796d0" d="M 1151.585938 800.15625 L 750.082031 572.253906 L 616.066406 648.324219 C 604.414062 666.800781 594.355469 686.375 586.070312 706.859375 L 744.730469 616.800781 C 747.867188 614.949219 751.878906 614.78125 755.273438 616.707031 C 881.4375 688.320312 1007.597656 759.929688 1133.761719 831.542969 L 1151.582031 800.15625 Z M 1151.585938 800.15625 " fill-opacity="1" fill-rule="evenodd"></path><g clip-path="url(#3b88bab102)"><g clip-path="url(#67b600bda2)"><g transform="matrix(1, 0, 0, 1, 23, 215)"><g clip-path="url(#d80466c13f)"><g clip-path="url(#8b30703280)"><g clip-path="url(#780fab47d9)"><path fill="#38b6ff" d="M 0.113281 0.832031 L 461.203125 0.832031 L 461.203125 481.734375 L 0.113281 481.734375 Z M 0.113281 0.832031 " fill-opacity="1" fill-rule="nonzero"></path></g></g></g></g></g></g><g clip-path="url(#f901432766)"><g clip-path="url(#d544c43545)"><path stroke-linecap="butt" transform="matrix(0.75, 0, 0, 0.75, 23.115643, 215.830685)" fill="none" stroke-linejoin="miter" d="M 307.387503 0.00179552 C 137.621863 0.00179552 0.00205949 143.751808 0.00205949 321.079948 C 0.00205949 498.40288 137.621863 642.158101 307.387503 642.158101 C 477.153142 642.158101 614.778154 498.40288 614.778154 321.079948 C 614.778154 143.751808 477.153142 0.00179552 307.387503 0.00179552 Z M 307.387503 0.00179552 " stroke="#000000" stroke-width="8" stroke-opacity="1" stroke-miterlimit="4"></path></g></g><g fill="#ffffff" fill-opacity="1"><g transform="translate(141.227394, 485.080661)"><g><path d="M 38.1875 -15.765625 L 5.390625 -15.765625 C 4.398438 -15.765625 3.679688 -16.566406 3.234375 -18.171875 C 3.015625 -19.003906 2.90625 -19.804688 2.90625 -20.578125 C 2.90625 -21.359375 3.015625 -22.160156 3.234375 -22.984375 C 3.679688 -24.585938 4.398438 -25.390625 5.390625 -25.390625 L 38.1875 -25.390625 C 39.175781 -25.390625 39.894531 -24.585938 40.34375 -22.984375 C 40.5625 -22.160156 40.671875 -21.359375 40.671875 -20.578125 C 40.671875 -19.804688 40.5625 -19.003906 40.34375 -18.171875 C 39.894531 -16.566406 39.175781 -15.765625 38.1875 -15.765625 Z M 38.1875 -15.765625 "></path></g></g></g><g fill="#ffffff" fill-opacity="1"><g transform="translate(184.798298, 485.080661)"><g><path d="M 45.40625 -24.8125 C 45.957031 -24.8125 46.234375 -22.722656 46.234375 -18.546875 C 46.234375 -14.367188 45.957031 -12.28125 45.40625 -12.28125 L 39.921875 -12.203125 L 39.921875 -1.75 C 39.921875 -1.132812 38.785156 -0.6875 36.515625 -0.40625 C 34.242188 -0.132812 32.28125 0 30.625 0 L 27.21875 -0.171875 C 24.394531 -0.390625 22.984375 -0.882812 22.984375 -1.65625 L 22.984375 -11.953125 L 6.46875 -11.953125 C 5.03125 -13.390625 3.726562 -15.253906 2.5625 -17.546875 C 1.40625 -19.847656 0.828125 -21.507812 0.828125 -22.53125 C 0.828125 -23.550781 0.992188 -24.367188 1.328125 -24.984375 L 19.5 -57.1875 C 19.726562 -57.625 21.429688 -57.953125 24.609375 -58.171875 C 27.785156 -58.398438 31.117188 -58.515625 34.609375 -58.515625 C 38.097656 -58.515625 39.84375 -58.375 39.84375 -58.09375 L 39.921875 -24.8125 Z M 25.390625 -24.734375 L 25.390625 -42.078125 L 15.6875 -24.734375 Z M 25.390625 -24.734375 "></path></g></g></g><g fill="#ffffff" fill-opacity="1"><g transform="translate(234.427623, 485.080661)"><g><path d="M 26.515625 0.828125 C 19.578125 0.828125 13.90625 -1.710938 9.5 -6.796875 C 5.101562 -11.890625 2.90625 -19.332031 2.90625 -29.125 C 2.90625 -38.925781 5.117188 -46.328125 9.546875 -51.328125 C 13.972656 -56.335938 19.6875 -58.84375 26.6875 -58.84375 C 33.6875 -58.84375 39.34375 -56.351562 43.65625 -51.375 C 47.96875 -46.394531 50.125 -38.894531 50.125 -28.875 C 50.125 -18.863281 47.925781 -11.410156 43.53125 -6.515625 C 39.132812 -1.617188 33.460938 0.828125 26.515625 0.828125 Z M 26.515625 -42.90625 C 24.390625 -42.90625 22.59375 -41.703125 21.125 -39.296875 C 19.65625 -36.890625 18.921875 -33.472656 18.921875 -29.046875 C 18.921875 -24.617188 19.625 -21.226562 21.03125 -18.875 C 22.445312 -16.53125 24.273438 -15.359375 26.515625 -15.359375 C 28.753906 -15.359375 30.578125 -16.546875 31.984375 -18.921875 C 33.398438 -21.304688 34.109375 -24.707031 34.109375 -29.125 C 34.109375 -33.550781 33.375 -36.953125 31.90625 -39.328125 C 30.445312 -41.710938 28.648438 -42.90625 26.515625 -42.90625 Z M 26.515625 -42.90625 "></path></g></g></g><g fill="#ffffff" fill-opacity="1"><g transform="translate(287.459632, 485.080661)"><g><path d="M 6.671875 -33.03125 C 4.429688 -35.519531 3.3125 -39.0625 3.3125 -43.65625 C 3.3125 -48.25 4.429688 -51.789062 6.671875 -54.28125 C 8.921875 -56.769531 12.019531 -58.015625 15.96875 -58.015625 C 19.925781 -58.015625 23.023438 -56.753906 25.265625 -54.234375 C 27.515625 -51.722656 28.640625 -48.195312 28.640625 -43.65625 C 28.640625 -39.125 27.515625 -35.597656 25.265625 -33.078125 C 23.023438 -30.554688 19.925781 -29.296875 15.96875 -29.296875 C 12.019531 -29.296875 8.921875 -30.539062 6.671875 -33.03125 Z M 10.828125 -49.671875 C 9.585938 -48.265625 8.96875 -46.257812 8.96875 -43.65625 C 8.96875 -41.050781 9.585938 -39.046875 10.828125 -37.640625 C 12.078125 -36.234375 13.789062 -35.53125 15.96875 -35.53125 C 18.15625 -35.53125 19.859375 -36.234375 21.078125 -37.640625 C 22.296875 -39.046875 22.90625 -41.050781 22.90625 -43.65625 C 22.90625 -46.257812 22.296875 -48.265625 21.078125 -49.671875 C 19.859375 -51.085938 18.15625 -51.796875 15.96875 -51.796875 C 13.789062 -51.796875 12.078125 -51.085938 10.828125 -49.671875 Z M 10.828125 -49.671875 "></path></g></g></g><g fill="#ffffff" fill-opacity="1"><g transform="translate(319.494618, 485.080661)"><g><path d="M 27.890625 -58.84375 C 31.929688 -58.84375 35.484375 -58.273438 38.546875 -57.140625 C 41.617188 -56.003906 43.15625 -54.46875 43.15625 -52.53125 C 43.15625 -50.601562 42.421875 -48.210938 40.953125 -45.359375 C 39.492188 -42.503906 38.265625 -41.078125 37.265625 -41.078125 C 36.992188 -41.078125 36.675781 -41.226562 36.3125 -41.53125 C 35.945312 -41.84375 35.113281 -42.175781 33.8125 -42.53125 C 32.519531 -42.894531 31.40625 -43.078125 30.46875 -43.078125 C 27.25 -43.078125 24.65625 -41.941406 22.6875 -39.671875 C 20.726562 -37.398438 19.75 -33.925781 19.75 -29.25 C 19.75 -24.582031 20.757812 -21.113281 22.78125 -18.84375 C 24.800781 -16.570312 27.363281 -15.4375 30.46875 -15.4375 C 31.738281 -15.4375 33.160156 -15.613281 34.734375 -15.96875 C 36.304688 -16.332031 37.425781 -16.847656 38.09375 -17.515625 C 38.207031 -17.617188 38.429688 -17.671875 38.765625 -17.671875 C 39.097656 -17.671875 39.71875 -17.046875 40.625 -15.796875 C 41.539062 -14.554688 42.382812 -12.925781 43.15625 -10.90625 C 43.9375 -8.894531 44.328125 -7.332031 44.328125 -6.21875 C 44.328125 -4.0625 42.664062 -2.347656 39.34375 -1.078125 C 36.019531 0.191406 32.09375 0.828125 27.5625 0.828125 C 20.25 0.828125 14.238281 -1.742188 9.53125 -6.890625 C 4.832031 -12.035156 2.484375 -19.296875 2.484375 -28.671875 C 2.484375 -38.054688 4.90625 -45.429688 9.75 -50.796875 C 14.59375 -56.160156 20.640625 -58.84375 27.890625 -58.84375 Z M 27.890625 -58.84375 "></path></g></g></g><g clip-path="url(#f8edbee81b)"><g clip-path="url(#fd5a07673c)"><g transform="matrix(1, 0, 0, 1, 519, 34)"><g clip-path="url(#e4649125b8)"><g clip-path="url(#f1929f693f)"><g clip-path="url(#2b6564e6e2)"><path fill="#38b6ff" d="M 0.453125 0.0195312 L 461.546875 0.0195312 L 461.546875 480.921875 L 0.453125 480.921875 Z M 0.453125 0.0195312 " fill-opacity="1" fill-rule="nonzero"></path></g></g></g></g></g></g><g clip-path="url(#c85ecfc03f)"><g clip-path="url(#55c88ecef8)"><path stroke-linecap="butt" transform="matrix(0.75, 0, 0, 0.75, 519.456205, 34.019343)" fill="none" stroke-linejoin="miter" d="M 307.386545 0.000250374 C 137.620906 0.000250374 0.00110219 143.750263 0.00110219 321.078403 C 0.00110219 498.406543 137.620906 642.156556 307.386545 642.156556 C 477.152185 642.156556 614.777197 498.406543 614.777197 321.078403 C 614.777197 143.750263 477.152185 0.000250374 307.386545 0.000250374 Z M 307.386545 0.000250374 " stroke="#000000" stroke-width="8" stroke-opacity="1" stroke-miterlimit="4"></path></g></g><g fill="#ffffff" fill-opacity="1"><g transform="translate(648.396068, 303.26932)"><g><path d="M 38.1875 -15.765625 L 5.390625 -15.765625 C 4.398438 -15.765625 3.679688 -16.566406 3.234375 -18.171875 C 3.015625 -19.003906 2.90625 -19.804688 2.90625 -20.578125 C 2.90625 -21.359375 3.015625 -22.160156 3.234375 -22.984375 C 3.679688 -24.585938 4.398438 -25.390625 5.390625 -25.390625 L 38.1875 -25.390625 C 39.175781 -25.390625 39.894531 -24.585938 40.34375 -22.984375 C 40.5625 -22.160156 40.671875 -21.359375 40.671875 -20.578125 C 40.671875 -19.804688 40.5625 -19.003906 40.34375 -18.171875 C 39.894531 -16.566406 39.175781 -15.765625 38.1875 -15.765625 Z M 38.1875 -15.765625 "></path></g></g></g><g fill="#ffffff" fill-opacity="1"><g transform="translate(691.966971, 303.26932)"><g><path d="M 29.546875 -1.40625 C 29.546875 -0.46875 26.738281 0 21.125 0 C 15.507812 0 12.703125 -0.46875 12.703125 -1.40625 L 12.703125 -42.328125 L 3.734375 -42.25 C 2.078125 -42.25 1.25 -44.90625 1.25 -50.21875 C 1.25 -52.039062 1.425781 -53.804688 1.78125 -55.515625 C 2.144531 -57.234375 2.769531 -58.09375 3.65625 -58.09375 L 26.390625 -58.09375 C 27.335938 -58.09375 28.097656 -57.882812 28.671875 -57.46875 C 29.253906 -57.0625 29.546875 -56.550781 29.546875 -55.9375 Z M 29.546875 -1.40625 "></path></g></g></g><g fill="#ffffff" fill-opacity="1"><g transform="translate(725.661796, 303.26932)"><g><path d="M 44.65625 -17.515625 C 44.65625 -12.085938 42.703125 -7.660156 38.796875 -4.234375 C 34.898438 -0.804688 29.703125 0.90625 23.203125 0.90625 C 16.703125 0.90625 11.582031 -0.738281 7.84375 -4.03125 C 4.101562 -7.320312 2.234375 -11.632812 2.234375 -16.96875 C 2.234375 -22.3125 4.921875 -27.054688 10.296875 -31.203125 C 6.523438 -34.472656 4.640625 -38.40625 4.640625 -43 C 4.640625 -47.59375 6.4375 -51.378906 10.03125 -54.359375 C 13.632812 -57.347656 18.226562 -58.84375 23.8125 -58.84375 C 29.40625 -58.84375 33.875 -57.445312 37.21875 -54.65625 C 40.570312 -51.863281 42.234375 -48.347656 42.203125 -44.109375 C 42.171875 -39.878906 40.390625 -36.050781 36.859375 -32.625 C 39.117188 -30.957031 40.984375 -28.8125 42.453125 -26.1875 C 43.921875 -23.5625 44.65625 -20.671875 44.65625 -17.515625 Z M 18.671875 -18.265625 C 18.671875 -16.660156 19.15625 -15.375 20.125 -14.40625 C 21.09375 -13.4375 22.296875 -12.953125 23.734375 -12.953125 C 25.171875 -12.953125 26.347656 -13.4375 27.265625 -14.40625 C 28.179688 -15.375 28.640625 -16.660156 28.640625 -18.265625 C 28.640625 -21.242188 26.726562 -23.703125 22.90625 -25.640625 C 20.082031 -23.929688 18.671875 -21.472656 18.671875 -18.265625 Z M 27.640625 -41.75 C 27.640625 -42.96875 27.207031 -43.988281 26.34375 -44.8125 C 25.488281 -45.644531 24.535156 -46.0625 23.484375 -46.0625 C 20.660156 -46.0625 19.195312 -44.707031 19.09375 -42 C 19.09375 -39.507812 21 -37.15625 24.8125 -34.9375 C 26.695312 -37.039062 27.640625 -39.3125 27.640625 -41.75 Z M 27.640625 -41.75 "></path></g></g></g><g fill="#ffffff" fill-opacity="1"><g transform="translate(772.967341, 303.26932)"><g><path d="M 6.671875 -33.03125 C 4.429688 -35.519531 3.3125 -39.0625 3.3125 -43.65625 C 3.3125 -48.25 4.429688 -51.789062 6.671875 -54.28125 C 8.921875 -56.769531 12.019531 -58.015625 15.96875 -58.015625 C 19.925781 -58.015625 23.023438 -56.753906 25.265625 -54.234375 C 27.515625 -51.722656 28.640625 -48.195312 28.640625 -43.65625 C 28.640625 -39.125 27.515625 -35.597656 25.265625 -33.078125 C 23.023438 -30.554688 19.925781 -29.296875 15.96875 -29.296875 C 12.019531 -29.296875 8.921875 -30.539062 6.671875 -33.03125 Z M 10.828125 -49.671875 C 9.585938 -48.265625 8.96875 -46.257812 8.96875 -43.65625 C 8.96875 -41.050781 9.585938 -39.046875 10.828125 -37.640625 C 12.078125 -36.234375 13.789062 -35.53125 15.96875 -35.53125 C 18.15625 -35.53125 19.859375 -36.234375 21.078125 -37.640625 C 22.296875 -39.046875 22.90625 -41.050781 22.90625 -43.65625 C 22.90625 -46.257812 22.296875 -48.265625 21.078125 -49.671875 C 19.859375 -51.085938 18.15625 -51.796875 15.96875 -51.796875 C 13.789062 -51.796875 12.078125 -51.085938 10.828125 -49.671875 Z M 10.828125 -49.671875 "></path></g></g></g><g fill="#ffffff" fill-opacity="1"><g transform="translate(805.002327, 303.26932)"><g><path d="M 27.890625 -58.84375 C 31.929688 -58.84375 35.484375 -58.273438 38.546875 -57.140625 C 41.617188 -56.003906 43.15625 -54.46875 43.15625 -52.53125 C 43.15625 -50.601562 42.421875 -48.210938 40.953125 -45.359375 C 39.492188 -42.503906 38.265625 -41.078125 37.265625 -41.078125 C 36.992188 -41.078125 36.675781 -41.226562 36.3125 -41.53125 C 35.945312 -41.84375 35.113281 -42.175781 33.8125 -42.53125 C 32.519531 -42.894531 31.40625 -43.078125 30.46875 -43.078125 C 27.25 -43.078125 24.65625 -41.941406 22.6875 -39.671875 C 20.726562 -37.398438 19.75 -33.925781 19.75 -29.25 C 19.75 -24.582031 20.757812 -21.113281 22.78125 -18.84375 C 24.800781 -16.570312 27.363281 -15.4375 30.46875 -15.4375 C 31.738281 -15.4375 33.160156 -15.613281 34.734375 -15.96875 C 36.304688 -16.332031 37.425781 -16.847656 38.09375 -17.515625 C 38.207031 -17.617188 38.429688 -17.671875 38.765625 -17.671875 C 39.097656 -17.671875 39.71875 -17.046875 40.625 -15.796875 C 41.539062 -14.554688 42.382812 -12.925781 43.15625 -10.90625 C 43.9375 -8.894531 44.328125 -7.332031 44.328125 -6.21875 C 44.328125 -4.0625 42.664062 -2.347656 39.34375 -1.078125 C 36.019531 0.191406 32.09375 0.828125 27.5625 0.828125 C 20.25 0.828125 14.238281 -1.742188 9.53125 -6.890625 C 4.832031 -12.035156 2.484375 -19.296875 2.484375 -28.671875 C 2.484375 -38.054688 4.90625 -45.429688 9.75 -50.796875 C 14.59375 -56.160156 20.640625 -58.84375 27.890625 -58.84375 Z M 27.890625 -58.84375 "></path></g></g></g><g clip-path="url(#b58c0a2453)"><g clip-path="url(#8244a868be)"><g transform="matrix(1, 0, 0, 1, 1015, 215)"><g clip-path="url(#1e03bfa92a)"><g clip-path="url(#37adcf7384)"><g clip-path="url(#f1f2944e77)"><path fill="#38b6ff" d="M 0.796875 0.832031 L 461.886719 0.832031 L 461.886719 481.734375 L 0.796875 481.734375 Z M 0.796875 0.832031 " fill-opacity="1" fill-rule="nonzero"></path></g></g></g></g></g></g><g clip-path="url(#fe554bed5b)"><g clip-path="url(#24a7cd33a3)"><path stroke-linecap="butt" transform="matrix(0.75, 0, 0, 0.75, 1015.796778, 215.830685)" fill="none" stroke-linejoin="miter" d="M 307.390781 0.00179552 C 137.625141 0.00179552 0.000129525 143.751808 0.000129525 321.079948 C 0.000129525 498.40288 137.625141 642.158101 307.390781 642.158101 C 477.156421 642.158101 614.776224 498.40288 614.776224 321.079948 C 614.776224 143.751808 477.156421 0.00179552 307.390781 0.00179552 Z M 307.390781 0.00179552 " stroke="#000000" stroke-width="8" stroke-opacity="1" stroke-miterlimit="4"></path></g></g><g fill="#ffffff" fill-opacity="1"><g transform="translate(1157.228851, 485.080661)"><g><path d="M 29.296875 -47.640625 L 29.296875 -33.703125 L 43.328125 -33.703125 C 44.316406 -33.703125 45.035156 -32.898438 45.484375 -31.296875 C 45.703125 -30.460938 45.8125 -29.65625 45.8125 -28.875 C 45.8125 -28.101562 45.703125 -27.304688 45.484375 -26.484375 C 45.035156 -24.867188 44.316406 -24.0625 43.328125 -24.0625 L 29.296875 -24.0625 L 29.296875 -9.875 C 29.296875 -8.882812 28.492188 -8.164062 26.890625 -7.71875 C 26.117188 -7.5 25.316406 -7.390625 24.484375 -7.390625 L 22.078125 -7.71875 C 20.472656 -8.164062 19.671875 -8.882812 19.671875 -9.875 L 19.671875 -24.0625 L 5.5625 -24.0625 C 4.5625 -24.0625 3.84375 -24.867188 3.40625 -26.484375 C 3.1875 -27.304688 3.078125 -28.101562 3.078125 -28.875 C 3.078125 -29.65625 3.1875 -30.460938 3.40625 -31.296875 C 3.84375 -32.898438 4.5625 -33.703125 5.5625 -33.703125 L 19.671875 -33.703125 L 19.671875 -47.640625 C 19.671875 -48.640625 20.472656 -49.359375 22.078125 -49.796875 C 22.847656 -50.015625 23.648438 -50.125 24.484375 -50.125 L 26.890625 -49.796875 C 28.492188 -49.359375 29.296875 -48.640625 29.296875 -47.640625 Z M 29.296875 -47.640625 "></path></g></g></g><g fill="#ffffff" fill-opacity="1"><g transform="translate(1207.190147, 485.080661)"><g><path d="M 45.40625 -24.8125 C 45.957031 -24.8125 46.234375 -22.722656 46.234375 -18.546875 C 46.234375 -14.367188 45.957031 -12.28125 45.40625 -12.28125 L 39.921875 -12.203125 L 39.921875 -1.75 C 39.921875 -1.132812 38.785156 -0.6875 36.515625 -0.40625 C 34.242188 -0.132812 32.28125 0 30.625 0 L 27.21875 -0.171875 C 24.394531 -0.390625 22.984375 -0.882812 22.984375 -1.65625 L 22.984375 -11.953125 L 6.46875 -11.953125 C 5.03125 -13.390625 3.726562 -15.253906 2.5625 -17.546875 C 1.40625 -19.847656 0.828125 -21.507812 0.828125 -22.53125 C 0.828125 -23.550781 0.992188 -24.367188 1.328125 -24.984375 L 19.5 -57.1875 C 19.726562 -57.625 21.429688 -57.953125 24.609375 -58.171875 C 27.785156 -58.398438 31.117188 -58.515625 34.609375 -58.515625 C 38.097656 -58.515625 39.84375 -58.375 39.84375 -58.09375 L 39.921875 -24.8125 Z M 25.390625 -24.734375 L 25.390625 -42.078125 L 15.6875 -24.734375 Z M 25.390625 -24.734375 "></path></g></g></g><g fill="#ffffff" fill-opacity="1"><g transform="translate(1256.819473, 485.080661)"><g><path d="M 6.671875 -33.03125 C 4.429688 -35.519531 3.3125 -39.0625 3.3125 -43.65625 C 3.3125 -48.25 4.429688 -51.789062 6.671875 -54.28125 C 8.921875 -56.769531 12.019531 -58.015625 15.96875 -58.015625 C 19.925781 -58.015625 23.023438 -56.753906 25.265625 -54.234375 C 27.515625 -51.722656 28.640625 -48.195312 28.640625 -43.65625 C 28.640625 -39.125 27.515625 -35.597656 25.265625 -33.078125 C 23.023438 -30.554688 19.925781 -29.296875 15.96875 -29.296875 C 12.019531 -29.296875 8.921875 -30.539062 6.671875 -33.03125 Z M 10.828125 -49.671875 C 9.585938 -48.265625 8.96875 -46.257812 8.96875 -43.65625 C 8.96875 -41.050781 9.585938 -39.046875 10.828125 -37.640625 C 12.078125 -36.234375 13.789062 -35.53125 15.96875 -35.53125 C 18.15625 -35.53125 19.859375 -36.234375 21.078125 -37.640625 C 22.296875 -39.046875 22.90625 -41.050781 22.90625 -43.65625 C 22.90625 -46.257812 22.296875 -48.265625 21.078125 -49.671875 C 19.859375 -51.085938 18.15625 -51.796875 15.96875 -51.796875 C 13.789062 -51.796875 12.078125 -51.085938 10.828125 -49.671875 Z M 10.828125 -49.671875 "></path></g></g></g><g fill="#ffffff" fill-opacity="1"><g transform="translate(1288.854459, 485.080661)"><g><path d="M 27.890625 -58.84375 C 31.929688 -58.84375 35.484375 -58.273438 38.546875 -57.140625 C 41.617188 -56.003906 43.15625 -54.46875 43.15625 -52.53125 C 43.15625 -50.601562 42.421875 -48.210938 40.953125 -45.359375 C 39.492188 -42.503906 38.265625 -41.078125 37.265625 -41.078125 C 36.992188 -41.078125 36.675781 -41.226562 36.3125 -41.53125 C 35.945312 -41.84375 35.113281 -42.175781 33.8125 -42.53125 C 32.519531 -42.894531 31.40625 -43.078125 30.46875 -43.078125 C 27.25 -43.078125 24.65625 -41.941406 22.6875 -39.671875 C 20.726562 -37.398438 19.75 -33.925781 19.75 -29.25 C 19.75 -24.582031 20.757812 -21.113281 22.78125 -18.84375 C 24.800781 -16.570312 27.363281 -15.4375 30.46875 -15.4375 C 31.738281 -15.4375 33.160156 -15.613281 34.734375 -15.96875 C 36.304688 -16.332031 37.425781 -16.847656 38.09375 -17.515625 C 38.207031 -17.617188 38.429688 -17.671875 38.765625 -17.671875 C 39.097656 -17.671875 39.71875 -17.046875 40.625 -15.796875 C 41.539062 -14.554688 42.382812 -12.925781 43.15625 -10.90625 C 43.9375 -8.894531 44.328125 -7.332031 44.328125 -6.21875 C 44.328125 -4.0625 42.664062 -2.347656 39.34375 -1.078125 C 36.019531 0.191406 32.09375 0.828125 27.5625 0.828125 C 20.25 0.828125 14.238281 -1.742188 9.53125 -6.890625 C 4.832031 -12.035156 2.484375 -19.296875 2.484375 -28.671875 C 2.484375 -38.054688 4.90625 -45.429688 9.75 -50.796875 C 14.59375 -56.160156 20.640625 -58.84375 27.890625 -58.84375 Z M 27.890625 -58.84375 "></path></g></g></g></svg>