<svg xmlns="http://www.w3.org/2000/svg" xmlns:xlink="http://www.w3.org/1999/xlink" width="2000" zoomAndPan="magnify" viewBox="0 0 1500 1499.999933" height="2000" preserveAspectRatio="xMidYMid meet"><defs><clipPath id="6c968edc37"><path d="M 123 72.882812 L 1376.914062 72.882812 L 1376.914062 1326.882812 L 123 1326.882812 Z M 123 72.882812 " clip-rule="nonzero"></path></clipPath></defs><g clip-path="url(#6c968edc37)"><path fill="#0781ca" d="M 750.144531 72.882812 C 1096.421875 72.882812 1377.203125 353.667969 1377.203125 700.015625 C 1377.203125 1046.289062 1096.421875 1327.074219 750.144531 1327.074219 C 403.796875 1327.074219 123.011719 1046.289062 123.011719 700.015625 C 123.011719 353.667969 403.796875 72.882812 750.144531 72.882812 Z M 607.070312 385.472656 C 568.820312 347.21875 506.738281 347.21875 468.410156 385.472656 C 430.15625 423.800781 430.15625 485.878906 468.410156 524.132812 C 506.738281 562.382812 568.820312 562.382812 607.070312 524.132812 C 645.324219 485.855469 645.324219 423.773438 607.070312 385.472656 Z M 537.765625 336.484375 C 603.109375 336.484375 656.082031 389.460938 656.082031 454.800781 C 656.082031 520.144531 603.109375 573.121094 537.765625 573.121094 C 472.421875 573.121094 419.449219 520.144531 419.449219 454.800781 C 419.449219 389.433594 472.421875 336.484375 537.765625 336.484375 Z M 834.527344 599.984375 C 823.289062 592.808594 834.175781 575.804688 845.335938 582.925781 C 870.21875 598.78125 902.148438 598.78125 927.03125 582.925781 C 938.269531 575.828125 949.15625 592.808594 937.917969 599.984375 C 906.289062 620.175781 866.105469 620.175781 834.527344 599.984375 Z M 1041.363281 413.890625 L 731.007812 413.890625 C 707.128906 413.890625 694.460938 443.039062 711.816406 460.320312 C 716.734375 465.285156 723.558594 468.347656 731.007812 468.347656 L 1041.363281 468.347656 C 1065.242188 468.347656 1077.910156 439.199219 1060.625 421.917969 C 1055.660156 416.953125 1048.835938 413.890625 1041.363281 413.890625 Z M 1011.589844 488.691406 L 760.804688 488.691406 L 760.804688 543.296875 C 760.804688 611.773438 816.917969 667.859375 885.371094 667.859375 C 920.789062 667.859375 951.488281 654.765625 974.96875 631.238281 C 997.566406 608.6875 1011.589844 577.558594 1011.589844 543.296875 Z M 919.207031 268.007812 L 919.207031 214.378906 L 853.210938 214.378906 L 853.210938 322.511719 C 853.210938 335.882812 832.871094 335.882812 832.871094 322.511719 L 832.871094 282.003906 C 784.585938 300.289062 748.617188 342.578125 738.65625 393.625 L 1033.738281 393.625 C 1023.777344 342.578125 987.808594 300.265625 939.449219 282.003906 L 939.449219 322.539062 C 939.449219 335.90625 919.183594 335.90625 919.183594 322.539062 L 919.183594 268.007812 Z M 693.683594 549.140625 C 691.550781 544.601562 690.421875 539.609375 690.421875 534.339844 L 690.421875 503.5625 C 690.421875 493.605469 694.535156 484.574219 701.308594 478.179688 C 673.792969 456.007812 679.183594 413.265625 710.691406 398.1875 C 706.777344 386.25 701.585938 374.734375 695.339844 363.925781 C 688.792969 352.539062 690.648438 338.464844 699.878906 329.234375 L 709.484375 319.628906 C 712.746094 316.417969 712.746094 311.023438 709.484375 307.765625 L 684.804688 283.082031 C 681.542969 279.820312 676.199219 279.820312 672.9375 283.082031 C 664.914062 291.109375 658.71875 299.285156 646.777344 300.867188 C 640.65625 301.71875 634.335938 300.515625 628.71875 297.230469 C 614.921875 289.277344 600.347656 283.230469 584.921875 279.09375 C 572.253906 275.757812 563.652344 264.445312 563.652344 251.351562 L 563.652344 237.78125 C 563.652344 233.242188 559.890625 229.402344 555.273438 229.402344 L 520.359375 229.402344 C 515.742188 229.402344 511.90625 233.242188 511.90625 237.78125 L 511.90625 251.351562 C 511.90625 264.445312 503.300781 275.65625 490.632812 279.09375 C 475.28125 283.207031 460.558594 289.328125 446.914062 297.230469 C 435.527344 303.777344 421.453125 301.917969 412.222656 292.6875 L 402.617188 283.082031 C 400.988281 281.453125 398.855469 280.675781 396.722656 280.675781 L 396.722656 280.574219 C 394.589844 280.574219 392.457031 281.425781 390.753906 283.058594 L 366.070312 307.738281 C 364.441406 309.371094 363.664062 311.5 363.664062 313.707031 L 363.585938 313.707031 C 363.585938 322.890625 381.421875 327.429688 383.855469 345.765625 C 384.632812 351.886719 383.503906 358.207031 380.21875 363.898438 C 376.304688 370.648438 372.742188 377.769531 369.683594 385.171875 C 366.699219 392.34375 364.140625 399.894531 362.082031 407.644531 C 358.671875 420.3125 347.433594 428.964844 334.339844 428.964844 L 320.769531 428.964844 C 316.230469 428.964844 312.390625 432.730469 312.390625 437.367188 L 312.390625 472.285156 C 312.390625 476.898438 316.230469 480.664062 320.769531 480.664062 C 332.082031 480.664062 342.316406 479.234375 351.847656 486.558594 C 356.765625 490.320312 360.375 495.585938 362.082031 501.910156 C 366.195312 517.257812 372.316406 531.984375 380.21875 545.703125 C 386.765625 557.015625 384.90625 571.089844 375.675781 580.320312 L 366.070312 589.925781 C 362.808594 593.1875 362.808594 598.527344 366.070312 601.789062 L 390.753906 626.472656 C 392.382812 628.101562 394.589844 628.957031 396.722656 628.957031 C 405.902344 628.957031 410.441406 611.097656 428.777344 608.6875 C 434.898438 607.910156 441.21875 609.039062 446.914062 612.324219 C 460.558594 620.277344 475.28125 626.320312 490.632812 630.460938 C 503.300781 633.871094 511.90625 645.109375 511.90625 658.203125 L 511.90625 671.773438 C 511.90625 676.386719 515.742188 680.148438 520.359375 680.148438 L 555.273438 680.148438 C 559.890625 680.148438 563.652344 676.386719 563.652344 671.773438 C 563.652344 660.460938 562.222656 650.226562 569.546875 640.695312 C 573.234375 635.777344 578.574219 632.164062 584.898438 630.460938 C 600.246094 626.398438 614.972656 620.300781 628.691406 612.324219 C 640.003906 605.777344 654.078125 607.632812 663.308594 616.863281 L 672.914062 626.472656 C 676.175781 629.734375 681.519531 629.734375 684.777344 626.472656 L 709.460938 601.789062 C 712.722656 598.527344 712.722656 593.1875 709.460938 589.925781 C 701.507812 581.972656 693.257812 575.703125 691.675781 563.765625 C 691.050781 558.871094 691.703125 553.832031 693.683594 549.140625 Z M 731.007812 488.691406 C 724.8125 488.691406 719.996094 488.113281 715.078125 493.027344 C 712.371094 495.738281 710.664062 499.5 710.664062 503.5625 L 710.664062 534.339844 C 710.664062 542.519531 717.410156 549.265625 725.589844 549.265625 L 740.589844 549.265625 C 740.511719 547.285156 740.511719 545.277344 740.511719 543.296875 L 740.511719 488.691406 Z M 1031.78125 549.289062 L 1046.78125 549.289062 C 1054.957031 549.289062 1061.707031 542.542969 1061.707031 534.367188 L 1061.707031 503.5625 C 1061.707031 495.386719 1054.957031 488.714844 1046.78125 488.714844 L 1031.929688 488.714844 L 1031.929688 543.320312 C 1031.90625 545.300781 1031.855469 547.285156 1031.78125 549.289062 Z M 817.542969 712.734375 L 891.640625 823.148438 L 965.8125 712.734375 L 965.8125 664.75 C 921.664062 693.542969 864 696.027344 817.570312 671.21875 L 817.570312 712.734375 Z M 944.816406 917.238281 C 931.449219 917.238281 931.449219 896.96875 944.816406 896.96875 L 1038.601562 896.96875 C 1051.972656 896.96875 1051.972656 917.238281 1038.601562 917.238281 Z M 1102.164062 1021.535156 L 1182.15625 1021.535156 L 1182.15625 822.296875 C 1182.15625 775.089844 1147.890625 734.90625 1102.164062 727.230469 Z M 901.800781 1021.535156 L 1081.898438 1021.535156 L 1081.898438 725.976562 L 981.289062 725.976562 L 901.800781 844.371094 Z M 701.359375 1021.535156 L 881.457031 1021.535156 L 881.457031 844.34375 L 801.96875 725.953125 L 701.359375 725.953125 Z M 601.101562 1021.535156 L 681.089844 1021.535156 L 681.089844 727.257812 C 635.363281 734.933594 601.101562 775.117188 601.101562 822.320312 Z M 1205.179688 1041.800781 L 312.367188 1041.800781 L 312.367188 1107.71875 L 1205.207031 1107.71875 L 1205.207031 1041.800781 Z M 457.398438 781.210938 C 426.671875 750.484375 373.996094 772.332031 373.996094 815.777344 C 373.996094 839.027344 390.351562 858.792969 412.675781 863.558594 L 412.675781 1041.800781 L 433.019531 1041.800781 L 433.019531 863.558594 C 470.644531 855.582031 484.863281 808.652344 457.398438 781.210938 Z M 457.398438 781.210938 " fill-opacity="1" fill-rule="evenodd"></path></g></svg>