<svg xmlns="http://www.w3.org/2000/svg" width="240" height="72" viewBox="0 0 240 72">
<defs><linearGradient id="bg" x1="0" y1="0" x2="1" y2="1"><stop offset="0%" stop-color="#0d2145"/><stop offset="100%" stop-color="#102f62"/></linearGradient></defs>
<rect x="2" y="2" width="236" height="68" rx="34" fill="url(#bg)" stroke="#234f8a" stroke-width="4"/>
<circle cx="42" cy="36" r="20" fill="#ffffff12" stroke="#7fc3ff" stroke-width="2"/>
<path d="M34 28c3-3 5-2 7 0l4 5c2 2 2 4 0 6l-3 3c3 5 7 9 12 12l3-3c2-2 4-2 6 0l5 4c2 2 3 4 0 7-2 2-5 5-10 4-8-2-17-9-25-17S20 31 22 23c1-5 4-8 6-10z" fill="#fff"/>
<text x="74" y="43" font-family="Arial, Helvetica, sans-serif" font-size="20" fill="#ffffff" font-weight="700">0 245 322 69 96</text></svg>