<svg xmlns="http://www.w3.org/2000/svg" width="512" height="512" viewBox="0 0 512 512">
<defs><linearGradient id="g1" x1="0" y1="0" x2="1" y2="1"><stop offset="0%" stop-color="#f8fdff"/><stop offset="100%" stop-color="#bfe3ff"/></linearGradient><filter id="shadow" x="-30%" y="-30%" width="160%" height="160%"><feDropShadow dx="0" dy="8" stdDeviation="8" flood-color="#7eb8e6" flood-opacity="0.35"/></filter></defs>
<g filter="url(#shadow)"><path d="M256 32 402 116v168L256 368 110 284V116L256 32z" fill="url(#g1)" stroke="#5aaee8" stroke-width="10"/><path d="M256 54 385 128v144L256 346 127 272V128L256 54z" fill="none" stroke="#d7efff" stroke-width="8"/></g>
<g stroke="#1f79c8" stroke-width="8" fill="none" stroke-linejoin="round"><rect x="130" y="248" width="252" height="76" rx="6" fill="#e8f6ff"/><rect x="150" y="184" width="90" height="64" rx="4" fill="#d7eeff"/><rect x="242" y="164" width="90" height="84" rx="4" fill="#c7e7ff"/><rect x="334" y="196" width="28" height="52" rx="3" fill="#b8dfff"/><path d="M130 270h252M170 324v26M256 324v26M342 324v26M142 350h228"/><path d="M150 206h90M242 188h90M334 214h28"/></g></svg>