<svg xmlns="http://www.w3.org/2000/svg" width="512" height="512" viewBox="0 0 512 512">
<defs><linearGradient id="g1" x1="0" y1="0" x2="1" y2="1"><stop offset="0%" stop-color="#f9fdff"/><stop offset="100%" stop-color="#b9e0ff"/></linearGradient><filter id="shadow" x="-30%" y="-30%" width="160%" height="160%"><feDropShadow dx="0" dy="8" stdDeviation="8" flood-color="#74b5df" flood-opacity="0.35"/></filter></defs>
<g filter="url(#shadow)"><path d="M256 32 402 116v168L256 368 110 284V116L256 32z" fill="url(#g1)" stroke="#5aaee8" stroke-width="10"/><path d="M256 54 385 128v144L256 346 127 272V128L256 54z" fill="none" stroke="#d7efff" stroke-width="8"/></g>
<g stroke="#1f79c8" stroke-width="8" fill="none" stroke-linejoin="round"><rect x="154" y="144" width="204" height="180" rx="8" fill="#eaf6ff"/><path d="M154 186h204M154 228h204M154 270h204"/><path d="M205 144v180M256 144v180M307 144v180"/><rect x="126" y="324" width="260" height="24" rx="4" fill="#c3e3ff"/><path d="M176 160v148M230 160v148M282 160v148M334 160v148"/></g></svg>