<svg xmlns="http://www.w3.org/2000/svg" width="512" height="512" viewBox="0 0 512 512">
<defs><linearGradient id="g1" x1="0" y1="0" x2="1" y2="1"><stop offset="0%" stop-color="#fbfeff"/><stop offset="100%" stop-color="#bcdfff"/></linearGradient><filter id="shadow" x="-30%" y="-30%" width="160%" height="160%"><feDropShadow dx="0" dy="8" stdDeviation="8" flood-color="#77b7df" flood-opacity="0.35"/></filter></defs>
<g filter="url(#shadow)"><path d="M256 32 402 116v168L256 368 110 284V116L256 32z" fill="url(#g1)" stroke="#5aaee8" stroke-width="10"/><path d="M256 54 385 128v144L256 346 127 272V128L256 54z" fill="none" stroke="#d7efff" stroke-width="8"/></g>
<g fill="none" stroke-linecap="round" stroke-linejoin="round"><g stroke="#1f79c8" stroke-width="8"><path d="M170 190h104l24 46h44c12 0 22 10 22 22v42h-18"/><path d="M190 300h100"/><circle cx="210" cy="300" r="24" fill="#eaf6ff"/><circle cx="330" cy="300" r="24" fill="#eaf6ff"/><path d="M146 190h34v110h-34z" fill="#dff1ff"/><path d="M170 190v110"/><path d="M298 236h44v34h-27"/></g><g stroke="#0f63b6" stroke-width="8"><path d="M132 222l20 14M118 254l24 2M128 286l22-10M354 144v98"/><circle cx="354" cy="270" r="30" fill="#fff5f5" stroke="#dd3b3b"/><path d="M354 156v90" stroke="#dd3b3b"/><path d="M388 164h34M388 196h26M388 228h18" stroke="#0f63b6"/></g></g></svg>