<svg xmlns="http://www.w3.org/2000/svg" width="1600" height="220" viewBox="0 0 1600 220" preserveAspectRatio="none">
<defs><linearGradient id="ice" x1="0" y1="0" x2="0" y2="1"><stop offset="0%" stop-color="#ffffff" stop-opacity="0.95"/><stop offset="100%" stop-color="#dff3ff" stop-opacity="0.95"/></linearGradient></defs>
<path d="M0 120c68 0 69-34 136-34s68 28 136 28 68-22 136-22 68 38 136 38 68-32 136-32 68 26 136 26 68-34 136-34 68 24 136 24 68-20 136-20 68 32 136 32 68-26 136-26v114H0z" fill="url(#ice)"/>
<path d="M0 154c45 0 60-18 108-18s63 28 120 28 58-16 116-16 69 24 122 24 56-22 111-22 60 18 116 18 68-18 126-18 65 26 122 26 59-18 116-18 76 18 126 18 54-12 117-12v56H0z" fill="#f7fdff" opacity="0.9"/></svg>