<svg xmlns="http://www.w3.org/2000/svg" xmlns:xlink="http://www.w3.org/1999/xlink" width="2000" zoomAndPan="magnify" viewBox="0 0 1500 1499.999933" height="2000" preserveAspectRatio="xMidYMid meet"><defs><clipPath id="cc502b23c8"><path d="M 341.261719 0 L 1123.511719 0 L 1123.511719 782.25 L 341.261719 782.25 Z M 341.261719 0 " clip-rule="nonzero"></path></clipPath><clipPath id="561e608617"><path d="M 28 855 L 777.914062 855 L 777.914062 1312.425781 L 28 1312.425781 Z M 28 855 " clip-rule="nonzero"></path></clipPath><clipPath id="20a9076066"><path d="M 865 806.460938 L 1454.386719 806.460938 L 1454.386719 1267.710938 L 865 1267.710938 Z M 865 806.460938 " clip-rule="nonzero"></path></clipPath><clipPath id="11267516dc"><path d="M 854.386719 939 L 1097 939 L 1097 1122 L 854.386719 1122 Z M 854.386719 939 " clip-rule="nonzero"></path></clipPath></defs><g clip-path="url(#cc502b23c8)"><path fill="#ffffff" d="M 1123.464844 391.101562 C 1123.464844 397.503906 1123.308594 403.898438 1122.992188 410.292969 C 1122.679688 416.683594 1122.207031 423.066406 1121.582031 429.4375 C 1120.953125 435.804688 1120.171875 442.15625 1119.230469 448.488281 C 1118.292969 454.820312 1117.199219 461.125 1115.949219 467.402344 C 1114.703125 473.679688 1113.300781 479.921875 1111.742188 486.132812 C 1110.1875 492.339844 1108.480469 498.507812 1106.625 504.632812 C 1104.765625 510.757812 1102.757812 516.832031 1100.601562 522.859375 C 1098.445312 528.886719 1096.144531 534.855469 1093.695312 540.769531 C 1091.246094 546.683594 1088.652344 552.53125 1085.914062 558.320312 C 1083.179688 564.105469 1080.300781 569.820312 1077.285156 575.464844 C 1074.265625 581.109375 1071.113281 586.679688 1067.820312 592.167969 C 1064.53125 597.65625 1061.109375 603.0625 1057.550781 608.386719 C 1053.996094 613.707031 1050.3125 618.9375 1046.5 624.082031 C 1042.6875 629.222656 1038.75 634.265625 1034.6875 639.214844 C 1030.628906 644.160156 1026.449219 649.007812 1022.148438 653.75 C 1017.851562 658.492188 1013.441406 663.125 1008.914062 667.652344 C 1004.386719 672.179688 999.753906 676.589844 995.011719 680.886719 C 990.269531 685.1875 985.421875 689.367188 980.476562 693.425781 C 975.527344 697.488281 970.484375 701.425781 965.34375 705.238281 C 960.199219 709.050781 954.96875 712.734375 949.648438 716.289062 C 944.324219 719.847656 938.917969 723.269531 933.429688 726.558594 C 927.941406 729.851562 922.371094 733.003906 916.726562 736.023438 C 911.082031 739.039062 905.367188 741.917969 899.582031 744.652344 C 893.792969 747.390625 887.945312 749.984375 882.03125 752.433594 C 876.117188 754.882812 870.148438 757.183594 864.121094 759.339844 C 858.09375 761.496094 852.019531 763.503906 845.894531 765.363281 C 839.769531 767.21875 833.601562 768.925781 827.394531 770.480469 C 821.183594 772.039062 814.941406 773.4375 808.664062 774.6875 C 802.386719 775.9375 796.082031 777.03125 789.75 777.96875 C 783.417969 778.910156 777.066406 779.691406 770.699219 780.320312 C 764.328125 780.945312 757.945312 781.417969 751.554688 781.730469 C 745.160156 782.046875 738.765625 782.203125 732.363281 782.203125 C 725.960938 782.203125 719.566406 782.046875 713.171875 781.730469 C 706.78125 781.417969 700.398438 780.945312 694.027344 780.320312 C 687.660156 779.691406 681.308594 778.910156 674.976562 777.96875 C 668.644531 777.03125 662.339844 775.9375 656.0625 774.6875 C 649.785156 773.4375 643.542969 772.039062 637.332031 770.480469 C 631.125 768.925781 624.957031 767.21875 618.832031 765.363281 C 612.707031 763.503906 606.632812 761.496094 600.605469 759.339844 C 594.578125 757.183594 588.609375 754.882812 582.695312 752.433594 C 576.78125 749.984375 570.933594 747.390625 565.144531 744.652344 C 559.359375 741.917969 553.644531 739.039062 548 736.023438 C 542.355469 733.003906 536.785156 729.851562 531.296875 726.558594 C 525.808594 723.269531 520.402344 719.847656 515.078125 716.289062 C 509.757812 712.734375 504.527344 709.050781 499.382812 705.238281 C 494.242188 701.425781 489.199219 697.488281 484.25 693.425781 C 479.304688 689.367188 474.457031 685.1875 469.714844 680.886719 C 464.972656 676.589844 460.339844 672.179688 455.8125 667.652344 C 451.285156 663.125 446.875 658.492188 442.578125 653.75 C 438.277344 649.007812 434.097656 644.160156 430.039062 639.214844 C 425.976562 634.265625 422.039062 629.222656 418.226562 624.082031 C 414.414062 618.9375 410.730469 613.707031 407.175781 608.386719 C 403.617188 603.0625 400.195312 597.65625 396.90625 592.167969 C 393.613281 586.679688 390.460938 581.109375 387.441406 575.464844 C 384.425781 569.820312 381.546875 564.105469 378.8125 558.320312 C 376.074219 552.53125 373.480469 546.683594 371.03125 540.769531 C 368.582031 534.855469 366.28125 528.886719 364.125 522.859375 C 361.96875 516.832031 359.960938 510.757812 358.101562 504.632812 C 356.246094 498.507812 354.539062 492.339844 352.984375 486.132812 C 351.425781 479.921875 350.027344 473.679688 348.777344 467.402344 C 347.527344 461.125 346.433594 454.820312 345.496094 448.488281 C 344.554688 442.15625 343.773438 435.804688 343.144531 429.4375 C 342.519531 423.066406 342.046875 416.683594 341.734375 410.292969 C 341.417969 403.898438 341.261719 397.503906 341.261719 391.101562 C 341.261719 384.699219 341.417969 378.304688 341.734375 371.910156 C 342.046875 365.519531 342.519531 359.136719 343.144531 352.765625 C 343.773438 346.398438 344.554688 340.046875 345.496094 333.714844 C 346.433594 327.382812 347.527344 321.078125 348.777344 314.800781 C 350.027344 308.523438 351.425781 302.28125 352.984375 296.070312 C 354.539062 289.863281 356.246094 283.695312 358.101562 277.570312 C 359.960938 271.445312 361.96875 265.371094 364.125 259.34375 C 366.28125 253.316406 368.582031 247.347656 371.03125 241.433594 C 373.480469 235.519531 376.074219 229.671875 378.8125 223.882812 C 381.546875 218.097656 384.425781 212.382812 387.441406 206.738281 C 390.460938 201.09375 393.613281 195.523438 396.90625 190.035156 C 400.195312 184.546875 403.617188 179.140625 407.175781 173.816406 C 410.730469 168.496094 414.414062 163.261719 418.226562 158.121094 C 422.039062 152.980469 425.976562 147.9375 430.039062 142.988281 C 434.097656 138.042969 438.277344 133.195312 442.578125 128.453125 C 446.875 123.710938 451.285156 119.078125 455.8125 114.550781 C 460.339844 110.023438 464.972656 105.613281 469.714844 101.3125 C 474.457031 97.015625 479.304688 92.835938 484.25 88.777344 C 489.199219 84.714844 494.242188 80.777344 499.382812 76.964844 C 504.527344 73.152344 509.757812 69.46875 515.078125 65.914062 C 520.402344 62.355469 525.808594 58.933594 531.296875 55.640625 C 536.785156 52.351562 542.355469 49.199219 548 46.179688 C 553.644531 43.164062 559.359375 40.285156 565.144531 37.550781 C 570.933594 34.8125 576.78125 32.21875 582.695312 29.769531 C 588.609375 27.320312 594.578125 25.019531 600.605469 22.863281 C 606.632812 20.707031 612.707031 18.699219 618.832031 16.839844 C 624.957031 14.984375 631.125 13.277344 637.332031 11.722656 C 643.542969 10.164062 649.785156 8.761719 656.0625 7.515625 C 662.339844 6.265625 668.644531 5.171875 674.976562 4.234375 C 681.308594 3.292969 687.660156 2.511719 694.027344 1.882812 C 700.398438 1.257812 706.78125 0.785156 713.171875 0.472656 C 719.566406 0.15625 725.960938 0 732.363281 0 C 738.765625 0 745.160156 0.15625 751.554688 0.472656 C 757.945312 0.785156 764.328125 1.257812 770.699219 1.882812 C 777.066406 2.511719 783.417969 3.292969 789.75 4.234375 C 796.082031 5.171875 802.386719 6.265625 808.664062 7.515625 C 814.941406 8.761719 821.183594 10.164062 827.394531 11.722656 C 833.601562 13.277344 839.769531 14.984375 845.894531 16.839844 C 852.019531 18.699219 858.09375 20.707031 864.121094 22.863281 C 870.148438 25.019531 876.117188 27.320312 882.03125 29.769531 C 887.945312 32.21875 893.792969 34.8125 899.582031 37.550781 C 905.367188 40.285156 911.082031 43.164062 916.726562 46.179688 C 922.371094 49.199219 927.941406 52.351562 933.429688 55.640625 C 938.917969 58.933594 944.324219 62.355469 949.648438 65.914062 C 954.96875 69.46875 960.199219 73.152344 965.34375 76.964844 C 970.484375 80.777344 975.527344 84.714844 980.476562 88.777344 C 985.421875 92.835938 990.269531 97.015625 995.011719 101.3125 C 999.753906 105.613281 1004.386719 110.023438 1008.914062 114.550781 C 1013.441406 119.078125 1017.851562 123.710938 1022.148438 128.453125 C 1026.449219 133.195312 1030.628906 138.042969 1034.6875 142.988281 C 1038.75 147.9375 1042.6875 152.980469 1046.5 158.121094 C 1050.3125 163.261719 1053.996094 168.496094 1057.550781 173.816406 C 1061.109375 179.140625 1064.53125 184.546875 1067.820312 190.035156 C 1071.113281 195.523438 1074.265625 201.09375 1077.285156 206.738281 C 1080.300781 212.382812 1083.179688 218.097656 1085.914062 223.882812 C 1088.652344 229.671875 1091.246094 235.519531 1093.695312 241.433594 C 1096.144531 247.347656 1098.445312 253.316406 1100.601562 259.34375 C 1102.757812 265.371094 1104.765625 271.445312 1106.625 277.570312 C 1108.480469 283.695312 1110.1875 289.863281 1111.742188 296.070312 C 1113.300781 302.28125 1114.703125 308.523438 1115.949219 314.800781 C 1117.199219 321.078125 1118.292969 327.382812 1119.230469 333.714844 C 1120.171875 340.046875 1120.953125 346.398438 1121.582031 352.765625 C 1122.207031 359.136719 1122.679688 365.519531 1122.992188 371.910156 C 1123.308594 378.304688 1123.464844 384.699219 1123.464844 391.101562 Z M 1123.464844 391.101562 " fill-opacity="1" fill-rule="nonzero"></path></g><path fill="#0781ca" d="M 837.4375 502.957031 L 782.164062 502.957031 C 774.339844 482.097656 754.265625 467.496094 730.800781 467.496094 C 707.332031 467.496094 687.257812 482.097656 679.433594 502.957031 L 655.445312 502.957031 C 652.058594 502.957031 649.1875 500.089844 649.1875 496.699219 L 649.1875 243.265625 C 649.1875 228.664062 661.183594 216.929688 675.523438 216.929688 C 690.125 216.929688 701.855469 228.664062 701.855469 243.265625 L 701.855469 429.429688 L 719.585938 429.429688 L 719.585938 435.425781 C 719.585938 445.59375 727.929688 453.679688 737.839844 453.679688 L 831.441406 453.679688 C 841.609375 453.679688 849.695312 445.59375 849.695312 435.425781 L 849.695312 416.394531 C 849.695312 411.699219 847.867188 407.527344 845 404.136719 L 900.277344 404.136719 C 926.089844 404.136719 948.511719 404.136719 953.207031 432.820312 C 955.292969 444.8125 955.03125 456.546875 954.507812 469.0625 C 954.507812 473.234375 954.25 477.664062 954.25 482.097656 C 954.25 495.65625 949.816406 500.609375 939.648438 502.175781 C 931.5625 481.835938 911.75 467.496094 888.804688 467.496094 C 865.335938 467.496094 845.261719 482.097656 837.4375 502.957031 Z M 837.4375 502.957031 " fill-opacity="1" fill-rule="evenodd"></path><path fill="#0781ca" d="M 730.800781 565.273438 C 707.070312 565.273438 688.039062 545.976562 688.039062 522.511719 C 688.039062 498.785156 707.070312 479.75 730.800781 479.75 C 754.265625 479.75 773.558594 498.785156 773.558594 522.511719 C 773.558594 545.976562 754.265625 565.273438 730.800781 565.273438 Z M 730.800781 541.546875 C 720.371094 541.546875 711.765625 532.941406 711.765625 522.511719 C 711.765625 512.082031 720.371094 503.476562 730.800781 503.476562 C 741.226562 503.476562 749.832031 512.082031 749.832031 522.511719 C 749.832031 532.941406 741.226562 541.546875 730.800781 541.546875 Z M 730.800781 515.472656 C 726.886719 515.472656 724.019531 518.601562 724.019531 522.511719 C 724.019531 526.160156 726.886719 529.289062 730.800781 529.289062 C 734.449219 529.289062 737.578125 526.160156 737.578125 522.511719 C 737.578125 518.601562 734.449219 515.472656 730.800781 515.472656 Z M 730.800781 515.472656 " fill-opacity="1" fill-rule="evenodd"></path><path fill="#0781ca" d="M 888.804688 565.273438 C 865.078125 565.273438 845.78125 545.976562 845.78125 522.511719 C 845.78125 498.785156 865.078125 479.75 888.804688 479.75 C 912.269531 479.75 931.5625 498.785156 931.5625 522.511719 C 931.5625 545.976562 912.269531 565.273438 888.804688 565.273438 Z M 888.804688 541.546875 C 878.113281 541.546875 869.769531 532.941406 869.769531 522.511719 C 869.769531 512.082031 878.113281 503.476562 888.804688 503.476562 C 899.234375 503.476562 907.578125 512.082031 907.578125 522.511719 C 907.578125 532.941406 899.234375 541.546875 888.804688 541.546875 Z M 888.804688 515.472656 C 884.894531 515.472656 881.765625 518.601562 881.765625 522.511719 C 881.765625 526.160156 884.894531 529.289062 888.804688 529.289062 C 892.453125 529.289062 895.582031 526.160156 895.582031 522.511719 C 895.582031 518.601562 892.453125 515.472656 888.804688 515.472656 Z M 888.804688 515.472656 " fill-opacity="1" fill-rule="evenodd"></path><path fill="#0781ca" d="M 880.980469 416.394531 C 877.851562 416.394531 874.984375 413.785156 874.984375 410.394531 L 874.984375 290.457031 C 874.984375 274.03125 874.984375 262.039062 871.855469 258.910156 C 869.25 256.300781 860.90625 256.300781 847.867188 256.300781 L 841.871094 256.5625 L 765.214844 256.300781 C 759.742188 256.300781 756.351562 256.300781 755.046875 257.085938 C 753.742188 257.867188 751.65625 261.515625 748.789062 266.730469 L 747.484375 269.078125 L 701.335938 359.550781 C 699.773438 362.421875 696.121094 363.722656 692.992188 362.160156 C 690.125 360.59375 688.820312 356.945312 690.386719 353.816406 L 738.097656 260.734375 C 746.703125 245.351562 748.789062 244.046875 765.476562 244.308594 L 847.867188 244.308594 C 865.078125 244.308594 874.464844 244.046875 880.460938 250.304688 C 887.238281 256.824219 887.238281 268.035156 887.238281 290.457031 L 887.238281 410.394531 C 887.238281 413.785156 884.371094 416.394531 880.980469 416.394531 Z M 880.980469 416.394531 " fill-opacity="1" fill-rule="evenodd"></path><path fill="#0781ca" d="M 831.441406 441.421875 L 737.839844 441.421875 C 734.449219 441.421875 731.84375 438.816406 731.84375 435.425781 L 731.84375 416.394531 C 731.84375 413.003906 734.449219 410.394531 737.839844 410.394531 L 831.441406 410.394531 C 834.832031 410.394531 837.4375 413.003906 837.4375 416.394531 L 837.4375 435.425781 C 837.4375 438.816406 834.832031 441.421875 831.441406 441.421875 Z M 831.441406 441.421875 " fill-opacity="1" fill-rule="evenodd"></path><path fill="#0781ca" d="M 819.1875 399.183594 L 751.917969 399.183594 C 743.3125 399.183594 736.535156 392.40625 736.535156 383.800781 C 736.535156 375.195312 743.3125 368.15625 751.917969 368.15625 L 805.628906 368.15625 L 814.753906 298.800781 C 816.058594 290.457031 823.621094 284.199219 832.222656 285.503906 C 836.394531 286.027344 840.046875 288.113281 842.652344 291.5 C 845 294.628906 846.304688 298.800781 845.523438 302.972656 L 834.570312 385.886719 C 833.527344 393.449219 827.011719 399.183594 819.1875 399.183594 Z M 819.1875 399.183594 " fill-opacity="1" fill-rule="evenodd"></path><path fill="#0781ca" d="M 763.652344 422.390625 C 760.261719 422.390625 757.65625 419.78125 757.65625 416.394531 L 757.65625 393.1875 C 757.65625 389.796875 760.261719 387.191406 763.652344 387.191406 C 766.257812 387.191406 768.34375 388.753906 769.386719 391.101562 L 799.371094 391.101562 C 800.152344 388.753906 802.5 387.191406 805.109375 387.191406 C 808.496094 387.191406 811.105469 389.796875 811.105469 393.1875 L 811.105469 416.394531 C 811.105469 419.78125 808.496094 422.390625 805.109375 422.390625 C 802.238281 422.390625 799.894531 420.566406 799.109375 418.21875 L 769.386719 418.21875 C 768.605469 420.566406 766.257812 422.390625 763.652344 422.390625 Z M 763.652344 422.390625 " fill-opacity="1" fill-rule="evenodd"></path><path fill="#0781ca" d="M 655.445312 451.332031 L 620.507812 451.332031 C 617.117188 451.332031 614.25 448.464844 614.25 445.074219 C 614.25 441.683594 617.117188 439.078125 620.507812 439.078125 L 649.1875 439.078125 L 649.1875 372.328125 L 620.507812 372.328125 C 617.117188 372.328125 614.25 369.460938 614.25 366.332031 C 614.25 362.941406 617.117188 360.074219 620.507812 360.074219 L 655.445312 360.074219 C 658.574219 360.074219 661.445312 362.941406 661.445312 366.332031 L 661.445312 445.074219 C 661.445312 448.464844 658.574219 451.332031 655.445312 451.332031 Z M 655.445312 451.332031 " fill-opacity="1" fill-rule="evenodd"></path><path fill="#0781ca" d="M 620.507812 502.957031 L 515.953125 502.957031 C 512.5625 502.957031 509.957031 500.089844 509.957031 496.699219 C 509.957031 493.570312 512.5625 490.703125 515.953125 490.703125 L 614.25 490.703125 L 614.25 244.046875 C 614.25 240.917969 617.117188 238.050781 620.507812 238.050781 C 623.898438 238.050781 626.503906 240.917969 626.503906 244.046875 L 626.503906 496.699219 C 626.503906 500.089844 623.898438 502.957031 620.507812 502.957031 Z M 620.507812 502.957031 " fill-opacity="1" fill-rule="evenodd"></path><path fill="#0781ca" d="M 695.859375 387.710938 C 694.035156 387.710938 692.472656 386.929688 691.167969 385.625 C 689.082031 383.019531 689.34375 379.109375 691.949219 377.023438 L 745.921875 329.566406 C 748.527344 327.480469 752.179688 327.742188 754.527344 330.351562 C 756.613281 332.695312 756.351562 336.609375 754.003906 338.953125 L 699.773438 386.148438 C 698.730469 387.191406 697.164062 387.710938 695.859375 387.710938 Z M 695.859375 387.710938 " fill-opacity="1" fill-rule="evenodd"></path><path fill="#0781ca" d="M 761.042969 358.25 C 758.957031 358.25 757.132812 357.207031 755.828125 355.382812 L 733.667969 319.660156 C 731.84375 316.792969 732.625 313.140625 735.492188 311.316406 C 738.359375 309.492188 742.011719 310.535156 743.835938 313.140625 L 766.257812 348.863281 C 768.082031 351.730469 767.039062 355.382812 764.171875 357.207031 C 763.128906 357.726562 762.085938 358.25 761.042969 358.25 Z M 761.042969 358.25 " fill-opacity="1" fill-rule="evenodd"></path><g clip-path="url(#561e608617)"><path fill="#ffffff" d="M 546.832031 1244.445312 L 273.519531 1244.445312 C 270.988281 1256.503906 265.925781 1267.6875 258.890625 1277.285156 L 561.457031 1277.285156 C 554.425781 1267.652344 549.363281 1256.503906 546.832031 1244.445312 Z M 120.707031 1277.285156 C 113.675781 1267.652344 108.609375 1256.503906 106.078125 1244.445312 L 76.613281 1244.445312 C 63.394531 1244.445312 51.332031 1239.03125 42.648438 1230.34375 C 33.925781 1221.625 28.546875 1209.636719 28.546875 1196.378906 C 28.546875 1183.15625 33.960938 1171.097656 42.648438 1162.414062 C 47.253906 1157.804688 52.84375 1154.078125 59.03125 1151.652344 L 59.03125 1083.476562 C 59.03125 1073.769531 66.910156 1065.894531 76.613281 1065.894531 L 114.378906 1065.894531 L 161.457031 968.8125 C 164.484375 962.554688 170.707031 958.933594 177.210938 958.898438 L 290.78125 958.898438 L 290.78125 872.609375 C 290.78125 862.90625 298.660156 855.066406 308.363281 855.066406 L 760.085938 855.066406 C 769.789062 855.066406 777.632812 862.941406 777.632812 872.609375 L 777.632812 1226.96875 C 777.632812 1236.675781 769.789062 1244.550781 760.085938 1244.550781 L 714.269531 1244.550781 C 711.738281 1256.644531 706.675781 1267.792969 699.644531 1277.390625 L 721.6875 1277.390625 C 731.394531 1277.390625 739.234375 1285.265625 739.234375 1294.972656 C 739.234375 1304.675781 731.359375 1312.519531 721.6875 1312.519531 L 98.660156 1312.519531 C 88.957031 1312.519531 81.113281 1304.640625 81.113281 1294.972656 C 81.113281 1285.265625 88.992188 1277.390625 98.660156 1277.390625 L 120.671875 1277.390625 Z M 386.597656 963.925781 L 386.597656 999.648438 L 742.539062 999.648438 L 742.539062 963.925781 Z M 386.597656 1105.625 L 386.597656 1141.351562 L 742.539062 1141.351562 L 742.539062 1105.625 Z M 351.507812 1209.316406 L 351.507812 890.085938 L 325.945312 890.085938 L 325.945312 1209.28125 L 351.507812 1209.28125 Z M 225.488281 1191.210938 C 216.382812 1182.101562 203.757812 1176.441406 189.835938 1176.441406 C 175.910156 1176.441406 163.285156 1182.101562 154.179688 1191.210938 C 145.074219 1200.316406 139.414062 1212.941406 139.414062 1226.863281 C 139.414062 1240.789062 145.074219 1253.410156 154.179688 1262.519531 C 163.285156 1271.625 175.910156 1277.285156 189.835938 1277.285156 C 203.757812 1277.285156 216.347656 1271.660156 225.488281 1262.519531 C 234.59375 1253.410156 240.257812 1240.789062 240.257812 1226.863281 C 240.257812 1212.941406 234.628906 1200.351562 225.488281 1191.210938 Z M 666.238281 1191.210938 C 657.132812 1182.101562 644.507812 1176.441406 630.585938 1176.441406 C 616.660156 1176.441406 604.074219 1182.101562 594.929688 1191.210938 C 585.824219 1200.316406 580.164062 1212.941406 580.164062 1226.863281 C 580.164062 1240.789062 585.824219 1253.410156 594.929688 1262.519531 C 604.039062 1271.625 616.660156 1277.285156 630.585938 1277.285156 C 644.507812 1277.285156 657.132812 1271.625 666.238281 1262.519531 C 675.347656 1253.410156 681.007812 1240.789062 681.007812 1226.863281 C 681.007812 1212.941406 675.382812 1200.351562 666.238281 1191.210938 Z M 237.300781 993.917969 L 188.214844 993.917969 L 153.335938 1065.859375 L 237.335938 1065.859375 L 237.335938 993.917969 Z M 237.300781 993.917969 " fill-opacity="1" fill-rule="evenodd"></path></g><path fill="#ffffff" d="M 1282.363281 1114.453125 C 1244.082031 1152.382812 1271.472656 1218.40625 1325.207031 1218.40625 C 1358.921875 1218.40625 1386.3125 1191.011719 1386.3125 1157.296875 C 1386.3125 1123.585938 1358.921875 1096.542969 1325.207031 1096.542969 C 1309.753906 1096.542969 1295.355469 1102.511719 1284.46875 1112.347656 Z M 1282.363281 1114.453125 " fill-opacity="1" fill-rule="evenodd"></path><g clip-path="url(#20a9076066)"><path fill="#ffffff" d="M 1251.457031 1174.507812 C 1246.1875 1150.976562 1252.160156 1127.097656 1266.910156 1109.183594 C 1259.535156 1105.671875 1250.402344 1104.621094 1242.675781 1107.429688 C 1237.761719 1108.835938 1232.84375 1105.320312 1232.84375 1100.054688 L 1232.84375 899.527344 C 1232.84375 885.480469 1244.785156 873.539062 1258.832031 873.539062 L 1420.378906 873.539062 C 1438.640625 873.539062 1454.09375 858.085938 1454.09375 839.824219 C 1454.09375 821.210938 1438.992188 806.460938 1420.378906 806.460938 L 1258.832031 806.460938 C 1207.558594 806.460938 1165.765625 848.253906 1165.765625 899.527344 L 1165.765625 1122.179688 C 1165.765625 1125.691406 1163.308594 1128.5 1160.148438 1129.554688 L 924.148438 1192.769531 L 890.4375 1201.898438 C 881.65625 1204.007812 874.632812 1209.625 870.066406 1217.351562 C 855.316406 1242.636719 878.847656 1274.242188 907.292969 1266.515625 Z M 1251.457031 1174.507812 " fill-opacity="1" fill-rule="evenodd"></path></g><path fill="#ffffff" d="M 1093.773438 1131.660156 C 1106.765625 1127.796875 1116.25 1111.644531 1112.386719 1096.542969 L 1100.445312 1052.996094 L 1074.457031 1060.019531 L 1081.480469 1086.007812 C 1082.535156 1090.222656 1080.429688 1094.433594 1075.863281 1095.488281 L 917.828125 1137.984375 L 916.074219 1138.332031 C 913.261719 1138.332031 910.453125 1136.929688 909.398438 1134.472656 L 901.675781 1106.375 L 875.6875 1113.398438 L 887.273438 1156.945312 C 891.136719 1171.695312 906.238281 1180.828125 920.988281 1178.019531 Z M 1093.773438 1131.660156 " fill-opacity="1" fill-rule="evenodd"></path><g clip-path="url(#11267516dc)"><path fill="#ffffff" d="M 920.988281 1121.476562 L 1065.328125 1082.847656 L 1058.304688 1056.507812 C 1057.25 1052.644531 1059.355469 1048.429688 1063.570312 1047.375 L 1096.582031 1038.597656 L 1081.480469 982.40625 C 1073.40625 951.152344 1040.746094 932.890625 1009.839844 940.964844 L 897.8125 970.816406 C 866.90625 979.246094 848.292969 1011.554688 856.722656 1042.8125 L 871.824219 1099 L 904.835938 1089.871094 C 909.050781 1088.816406 912.910156 1091.273438 913.964844 1095.136719 Z M 920.988281 1121.476562 " fill-opacity="1" fill-rule="evenodd"></path></g></svg>